# xmcd
#
# Track frame offsets: 
#        182
#        10040
#        21202
#        33127
#        45147
#        60535
#        77165
#        88590
#        99472
#        111495
#        121402
#        132992
#        144792
#        157027
#        169420
#        179102
#        192347
#        202672
#        215182
#        226672
#
# Disc length: 3160 seconds
#
# Revision: 3
# Processed by: cddbd v1.5.2PL0 Copyright (c) Steve Scherf et al.
# Submitted via: ExactAudioCopy v0.99pb4
#
DISCID=090c5614
DTITLE=John Lee Hooker - 20 Reflective Recordings [Audio Archive Colle
DTITLE=ctors Ed.]
DYEAR=1900
DGENRE=Blues
TTITLE0=Dimples
TTITLE1=Boom Boom
TTITLE2=Whiskey and Wimmen
TTITLE3=Frisco Blues
TTITLE4=Tupelo
TTITLE5=Process
TTITLE6=Good Rockin  Mama
TTITLE7=No Shoe
TTITLE8=I m In The Mood
TTITLE9=Dusty Road
TTITLE10=Boogie Chillum
TTITLE11=Hard Hearted Woman
TTITLE12=Drug Store Woman
TTITLE13=Hobo Blues
TTITLE14=Onions
TTITLE15=Baby Lee
TTITLE16=I m Leaving
TTITLE17=Trouble Blues
TTITLE18=Little Wheel
TTITLE19=Old Time Shimmy
EXTD=
EXTT0=
EXTT1=
EXTT2=
EXTT3=
EXTT4=
EXTT5=
EXTT6=
EXTT7=
EXTT8=
EXTT9=
EXTT10=
EXTT11=
EXTT12=
EXTT13=
EXTT14=
EXTT15=
EXTT16=
EXTT17=
EXTT18=
EXTT19=
PLAYORDER=
